<?xml version="1.0" encoding="utf-8"?>
<!-- Generator: Adobe Illustrator 22.0.1, SVG Export Plug-In . SVG Version: 6.00 Build 0)  -->
<svg version="1.1" id="Layer_1" xmlns="http://www.w3.org/2000/svg" xmlns:xlink="http://www.w3.org/1999/xlink" x="0px" y="0px"
	 viewBox="0 0 30.6 22" style="enable-background:new 0 0 30.6 22;" xml:space="preserve">
<style type="text/css">
	.st0{fill:#105DAC;}
</style>
<title>“</title>
<desc>Created with Sketch.</desc>
<g id="All-pages">
	<g id="Pricing" transform="translate(-711.000000, -2530.000000)">
		<path id="_x201C_" class="st0" d="M727,2551.9l0.3-3.4c5.4-1.2,8.2-3.4,8.2-6.7c0-0.9-0.9-2-2.6-3c-1.7-1.1-2.6-2.4-2.6-4.1
			c0-1.4,0.5-2.6,1.4-3.4s2.1-1.3,3.6-1.3c1.7,0,3.2,0.6,4.4,1.8s1.8,2.8,1.8,4.7c0,3.9-1.2,7.1-3.7,9.8S731.7,2551,727,2551.9z
			 M711,2551.9l0.3-3.4c5.4-1.2,8.2-3.5,8.2-6.7c0-0.9-0.9-2-2.6-3c-1.7-1.1-2.6-2.4-2.6-4.1c0-1.4,0.4-2.6,1.3-3.4s2.1-1.3,3.6-1.3
			c1.8,0,3.2,0.6,4.4,1.8s1.8,2.8,1.8,4.7c0,3.9-1.2,7.2-3.7,9.9S715.7,2551,711,2551.9z"/>
	</g>
</g>
</svg>
