<?xml version="1.0" encoding="UTF-8"?>
<svg width="19px" height="16px" viewBox="0 0 19 16" version="1.1" xmlns="http://www.w3.org/2000/svg" xmlns:xlink="http://www.w3.org/1999/xlink">
    <!-- Generator: Sketch 46.2 (44496) - http://www.bohemiancoding.com/sketch -->
    <title>Combined Shape</title>
    <desc>Created with Sketch.</desc>
    <defs></defs>
    <g id="Design" stroke="none" stroke-width="1" fill="none" fill-rule="evenodd">
        <g id="Open-days-listing-page" transform="translate(-954.000000, -1320.000000)" fill="#414952">
            <path d="M972.55929,1321.40448 L969.616822,1321.40448 L969.616822,1320.42042 C969.616822,1320.18726 969.418605,1320 969.176126,1320 C968.931722,1320 968.735429,1320.1891 968.735429,1320.42042 L968.735429,1321.40448 L958.362703,1321.40448 L958.362703,1320.42042 C958.362703,1320.18726 958.164486,1320 957.922007,1320 C957.677603,1320 957.48131,1320.1891 957.48131,1320.42042 L957.48131,1321.40448 L954.440697,1321.40448 C954.196293,1321.40448 954,1321.59357 954,1321.8249 L954,1335.57958 C954,1335.81274 954.198217,1336 954.440697,1336 L972.55929,1336 C972.803693,1336 972.999986,1335.8109 972.999986,1335.57958 L972.999986,1321.8249 C973.001911,1321.59357 972.803693,1321.40448 972.55929,1321.40448 L972.55929,1321.40448 Z M957.477461,1322.24716 L957.477461,1323.22937 C957.477461,1323.46254 957.675678,1323.6498 957.918158,1323.6498 C958.162562,1323.6498 958.358854,1323.4607 958.358854,1323.22937 L958.358854,1322.24716 L968.73158,1322.24716 L968.73158,1323.22937 C968.73158,1323.46254 968.929798,1323.6498 969.172277,1323.6498 C969.416681,1323.6498 969.612973,1323.4607 969.612973,1323.22937 L969.612973,1322.24716 L972.114744,1322.24716 L972.114744,1325.95571 L954.879469,1325.95571 L954.879469,1322.24716 L957.477461,1322.24716 L957.477461,1322.24716 Z M954.879469,1335.15915 L954.879469,1326.79656 L972.118593,1326.79656 L972.118593,1335.15915 L954.879469,1335.15915 Z" id="Combined-Shape"></path>
        </g>
    </g>
</svg>