<?xml version="1.0" encoding="utf-8"?>
<!-- Generator: Adobe Illustrator 21.0.2, SVG Export Plug-In . SVG Version: 6.00 Build 0)  -->
<svg version="1.1" id="Capa_1" xmlns="http://www.w3.org/2000/svg" xmlns:xlink="http://www.w3.org/1999/xlink" x="0px" y="0px"
	 viewBox="0 0 612 1412" style="enable-background:new 0 0 612 1412;" xml:space="preserve">
<style type="text/css">
	.st0{fill:#FFFFFF;}
</style>
<g>
	<g id="plus">
		<g>
			<path class="st0" d="M554.6,248.6H363.4V57.4C363.4,25.7,337.7,0,306,0s-57.4,25.7-57.4,57.4v191.3H57.4
				C25.7,248.6,0,274.3,0,306s25.7,57.4,57.4,57.4h191.3v191.3c0,31.7,25.7,57.4,57.4,57.4s57.4-25.7,57.4-57.4V363.4h191.3
				c31.7,0,57.4-25.7,57.4-57.4S586.3,248.6,554.6,248.6z"/>
			<path class="st0" d="M363.4,1389.4L363.4,1389.4h191.3c31.7,0,57.4-25.7,57.4-57.4s-25.7-57.4-57.4-57.4H363.4l0,0
				c-42.6,0-10.9,0-42.6,0s-10,0-72.2,0l0,0H57.4c-31.7,0-57.4,25.7-57.4,57.4s25.7,57.4,57.4,57.4h191.3l0,0"/>
		</g>
	</g>
</g>
</svg>
