<?xml version="1.0" encoding="utf-8"?>
<!-- Generator: Adobe Illustrator 21.0.2, SVG Export Plug-In . SVG Version: 6.00 Build 0)  -->
<svg version="1.1" id="Capa_1" xmlns="http://www.w3.org/2000/svg" xmlns:xlink="http://www.w3.org/1999/xlink" x="0px" y="0px"
	 viewBox="0 0 269.9 457" style="enable-background:new 0 0 269.9 457;" xml:space="preserve">
<style type="text/css">
	.st0{fill:#105DAC;}
	.st1{fill:#414952;}
</style>
<g>
	<path class="st0" d="M265.2,355.7l-80-80c-4.9-4.9-12.8-4.9-17.7,0c-4.9,4.9-4.9,12.8,0,17.7l58.7,58.6H12.5
		C5.6,352,0,357.6,0,364.5S5.6,377,12.5,377h213.7l-58.7,58.7c-4.9,4.9-4.9,12.8,0,17.7c2.4,2.4,5.6,3.7,8.8,3.7s6.4-1.2,8.8-3.7
		l80-80C270.1,368.5,270.1,360.5,265.2,355.7z"/>
</g>
<g>
	<path class="st1" d="M266.2,84.7l-80-80c-4.9-4.9-12.8-4.9-17.7,0c-4.9,4.9-4.9,12.8,0,17.7L227.2,81H13.5C6.6,81,1,86.6,1,93.5
		S6.6,106,13.5,106h213.7l-58.7,58.7c-4.9,4.9-4.9,12.8,0,17.7c2.4,2.4,5.6,3.7,8.8,3.7s6.4-1.2,8.8-3.7l80-80
		C271.1,97.5,271.1,89.5,266.2,84.7z"/>
</g>
</svg>
